<svg xmlns="http://www.w3.org/2000/svg" width="21.823" height="16.672" viewBox="0 0 21.823 16.672">
  <g id="Group_74819" data-name="Group 74819" transform="translate(-146 -989.663)">
    <g id="open-book" transform="translate(146 954.615)">
      <g id="Group_49730" data-name="Group 49730" transform="translate(0 35.048)">
        <g id="Group_49729" data-name="Group 49729" transform="translate(0 0)">
          <path id="Path_132624" data-name="Path 132624" d="M35.612,35.049h0a.77.77,0,0,0-.547.227.778.778,0,0,0-.23.554V47.54a.784.784,0,0,0,.782.781A9.66,9.66,0,0,1,42.579,50.9V38.647a.748.748,0,0,0-.107-.4C40.747,35.475,37.434,35.053,35.612,35.049Z" transform="translate(-32.274 -35.049)" fill="#2096f2"/>
          <path id="Path_132625" data-name="Path 132625" d="M164.5,47.539V35.829a.779.779,0,0,0-.777-.781h0c-1.822,0-5.135.426-6.86,3.2a.748.748,0,0,0-.107.4V50.9a9.66,9.66,0,0,1,6.964-2.582A.784.784,0,0,0,164.5,47.539Z" transform="translate(-145.233 -35.048)" fill="#2096f2"/>
          <path id="Path_132626" data-name="Path 132626" d="M179.924,71.8h-.566v9.79a2,2,0,0,1-1.991,1.993,8.661,8.661,0,0,0-5.884,2.009,18.8,18.8,0,0,1,8.267.16.781.781,0,0,0,.956-.761V72.582A.782.782,0,0,0,179.924,71.8Z" transform="translate(-158.882 -69.1)" fill="#2096f2"/>
          <path id="Path_132627" data-name="Path 132627" d="M1.347,81.591V71.8H.781A.782.782,0,0,0,0,72.582v12.41a.781.781,0,0,0,.956.761,18.8,18.8,0,0,1,8.267-.16,8.661,8.661,0,0,0-5.884-2.009A2,2,0,0,1,1.347,81.591Z" transform="translate(0 -69.1)" fill="#2096f2"/>
        </g>
      </g>
    </g>
  </g>
</svg>
